<?xml version="1.0" standalone="no"?>
<!DOCTYPE svg PUBLIC "-//W3C//DTD SVG 20010904//EN"
 "http://www.w3.org/TR/2001/REC-SVG-20010904/DTD/svg10.dtd">
<svg version="1.0" xmlns="http://www.w3.org/2000/svg"
 width="735.000000pt" height="490.000000pt" viewBox="0 0 735.000000 490.000000"
 preserveAspectRatio="xMidYMid meet">

<g transform="translate(0.000000,490.000000) scale(0.100000,-0.100000)"
fill="#000000" stroke="none">
<path d="M0 3090 c0 -1717 1 -1810 18 -1810 9 0 64 10 122 21 136 27 456 35
605 14 215 -30 387 -82 585 -177 147 -71 254 -138 315 -196 8 -6 19 -12 25
-12 7 0 9 -7 6 -16 -3 -8 -2 -13 2 -10 4 2 19 -4 32 -15 17 -12 20 -19 10 -19
-8 0 -21 -9 -28 -20 -8 -13 -8 -20 -1 -20 5 0 7 -4 4 -10 -3 -5 1 -10 9 -10 8
0 18 -5 22 -11 5 -8 -1 -10 -19 -5 -15 3 -27 2 -29 -5 -2 -6 -44 16 -93 49
-76 50 -208 125 -225 128 -3 0 -43 19 -89 42 -87 43 -111 50 -111 32 0 -5 5
-10 12 -10 17 0 -3 -17 -27 -23 -11 -3 -3 -5 18 -6 21 0 36 -5 33 -10 -3 -4 5
-8 17 -8 39 -1 50 -3 44 -9 -7 -8 30 -44 46 -44 7 0 18 -9 25 -20 7 -11 19
-20 27 -20 22 0 116 -68 185 -132 22 -21 45 -38 50 -38 13 0 13 -17 0 -25 -10
-6 6 -44 25 -57 17 -12 14 -48 -4 -48 -12 0 -13 -2 -3 -9 7 -4 14 -19 14 -32
1 -13 6 -30 12 -38 6 -7 10 -53 10 -102 -1 -83 1 -89 20 -90 15 -1 13 -4 -9
-9 -17 -4 -22 -8 -11 -9 12 -1 16 -6 12 -16 -4 -13 11 -15 102 -16 l107 -2
-85 -8 c-47 -4 -110 -8 -140 -10 -31 -1 -64 -5 -75 -9 -19 -7 -19 -8 -2 -15
13 -5 15 -11 7 -20 -8 -9 -8 -15 0 -20 13 -8 13 -85 0 -85 -5 0 -10 -22 -10
-50 l0 -50 2895 0 2895 0 0 1710 0 1710 -432 0 c-238 0 -449 4 -469 9 -20 4
-49 20 -65 34 -119 106 -102 97 -181 97 -69 0 -143 22 -143 42 0 4 -5 8 -11 8
-20 0 -287 274 -294 303 -5 20 -13 27 -31 27 -33 0 -30 16 4 25 15 4 21 10 14
12 -10 4 -8 9 5 19 17 12 17 13 1 14 -11 0 -20 11 -24 28 -3 15 -9 37 -14 49
-8 19 -5 22 18 26 15 2 -8 5 -50 6 -80 1 -113 21 -35 21 49 0 80 15 59 29 -8
4 -13 11 -12 15 1 3 -1 22 -4 41 -6 31 -10 35 -39 35 -18 0 -39 5 -47 10 -11
7 -5 10 23 10 20 0 37 2 37 5 0 3 -13 33 -29 67 -16 35 -33 75 -36 90 -4 15
-16 29 -28 33 -14 4 -17 8 -9 12 6 2 9 9 6 15 -4 6 0 14 7 19 11 7 10 9 -3 9
-10 0 -18 5 -18 10 0 6 -19 10 -42 11 -47 1 -43 4 16 14 22 4 34 10 28 14 -6
4 -13 26 -14 49 -2 29 -7 41 -15 37 -14 -5 -29 38 -18 55 3 5 -1 13 -9 16 -9
3 -16 12 -16 20 0 8 -4 22 -9 32 -5 9 -15 38 -22 65 l-12 47 -2024 0 -2024 0
3 -92 c3 -83 1 -93 -14 -92 -14 1 -18 -6 -18 -36 0 -37 -27 -100 -42 -100 -5
0 -8 -7 -8 -15 0 -9 -7 -18 -15 -21 -8 -4 -15 -15 -15 -25 0 -13 -5 -17 -18
-12 -15 6 -15 5 -3 -10 20 -25 0 -20 -34 8 -50 43 -157 139 -176 158 -14 16
-21 17 -39 7 -12 -6 -28 -9 -36 -6 -8 3 -14 -1 -14 -9 0 -11 -11 -15 -40 -15
-24 0 -40 5 -40 12 0 6 -9 3 -20 -7 -19 -17 -21 -17 -38 -2 -10 10 -23 17 -29
17 -15 0 -73 55 -73 69 0 6 -10 11 -22 12 -22 0 -22 1 -3 9 14 6 15 9 5 9 -25
1 -48 35 -39 58 4 12 12 24 18 28 6 3 9 10 6 15 -3 5 6 12 20 16 14 3 25 10
25 14 0 5 -13 5 -29 0 -21 -6 -31 -5 -35 3 -4 10 -7 -5 -6 -28 0 -3 -5 -11
-12 -18 -13 -15 -48 -20 -48 -8 0 5 -9 11 -19 14 -14 3 -18 11 -14 26 5 18 1
21 -30 21 -29 0 -36 -4 -39 -22 -4 -33 -62 -32 -66 0 -3 22 -4 22 -218 22
l-214 0 0 -1810z m5638 808 c8 -8 9 -15 1 -25 -18 -21 -39 -15 -39 12 0 27 18
33 38 13z m-438 -140 c19 -33 41 -67 48 -75 11 -11 12 -17 2 -29 -11 -12 -10
-13 4 -8 10 4 29 -5 51 -25 20 -17 32 -31 28 -31 -8 0 22 -19 67 -42 14 -7 36
-21 50 -30 28 -19 186 -73 240 -82 109 -19 369 -56 426 -61 36 -3 69 -7 73 -9
3 -2 28 -7 55 -10 27 -4 52 -9 55 -11 3 -1 83 -13 176 -24 206 -26 216 -27
285 -41 30 -6 66 -13 80 -16 38 -7 150 -45 150 -51 0 -6 -43 -42 -52 -43 -3 0
-4 10 -1 23 4 21 4 21 -8 2 -12 -19 -12 -19 -20 0 -6 19 -8 18 -18 -5 l-11
-25 3 28 c6 38 -10 34 -23 -5 l-10 -33 3 37 c3 42 -2 41 -21 -5 l-12 -32 4 43
c2 23 0 40 -5 36 -5 -3 -9 -16 -9 -28 0 -13 -8 -34 -19 -47 -18 -24 -18 -24 8
-26 14 -1 33 4 41 10 13 11 13 10 1 -6 -21 -27 -4 -33 19 -7 11 13 20 19 20
15 0 -12 -41 -55 -52 -55 -5 0 -6 5 -2 12 5 7 2 9 -8 6 -8 -4 -28 0 -44 7
-122 57 -443 160 -595 190 -26 5 -161 18 -211 20 -27 2 -49 4 -50 5 -2 1 -22
3 -45 4 -23 0 -44 4 -47 7 -4 4 -20 5 -36 3 -17 -2 -30 0 -30 4 0 4 -20 7 -45
7 -25 -1 -45 1 -45 4 0 3 -10 7 -23 8 -33 3 -51 8 -64 16 -7 5 -17 5 -23 2 -5
-3 -10 -2 -10 4 0 6 -7 8 -15 5 -8 -4 -15 -2 -15 3 0 5 -8 9 -17 10 -55 5 -73
9 -73 16 0 4 -10 7 -23 7 -12 0 -39 9 -60 20 -20 11 -44 20 -53 20 -9 0 -12 5
-8 12 5 8 2 9 -10 5 -14 -6 -17 -3 -12 9 4 12 2 15 -9 10 -9 -3 -15 0 -15 8 0
8 6 16 13 19 7 2 8 8 3 13 -5 5 -11 4 -13 -3 -6 -16 -13 -16 -37 2 -19 14 -19
16 10 40 16 14 25 25 19 25 -5 0 -23 -11 -39 -25 l-28 -24 -25 29 c-24 29 -24
57 0 44 7 -4 6 -1 -2 7 -10 11 -15 11 -18 2 -3 -7 -11 -13 -19 -13 -19 0 -18
-9 4 -33 17 -19 16 -20 -6 -8 -29 15 -40 7 -21 -15 12 -15 11 -16 -9 -10 -12
4 -22 3 -22 -2 0 -6 5 -12 12 -14 7 -3 5 -7 -6 -11 -10 -4 -15 -3 -11 3 3 6
-1 10 -9 10 -10 0 -13 -6 -9 -16 5 -12 0 -15 -23 -12 -18 2 -28 8 -26 16 1 8
-2 11 -8 7 -5 -3 -25 8 -42 26 l-33 32 30 -18 30 -18 -22 25 c-31 33 -32 103
-3 111 11 3 20 13 20 22 0 15 2 15 16 4 13 -10 17 -10 25 2 5 8 9 20 9 27 0
14 16 16 25 2 3 -6 15 -5 31 2 17 8 21 15 14 22 -12 12 -13 26 -1 26 5 0 12
-11 15 -25 6 -23 26 -36 26 -16 0 5 12 9 26 9 14 0 22 -3 17 -7 -6 -3 -13 -13
-16 -21 -4 -11 -6 -10 -7 5 l-1 20 -15 -20 c-10 -12 -18 -16 -21 -9 -4 12 -43
7 -43 -5 1 -10 27 -41 35 -41 4 0 2 7 -5 15 -20 24 -2 31 19 7 21 -25 41 -31
21 -7 -7 9 -9 19 -5 23 4 4 10 1 12 -5 4 -10 8 -9 19 2 17 17 20 41 9 68 -4 9
-3 17 1 17 5 0 25 -28 44 -62z m450 47 c0 -8 -9 -15 -20 -15 -20 0 -26 11 -13
23 12 13 33 7 33 -8z m-600 -25 c0 -5 -5 -10 -11 -10 -5 0 -7 5 -4 10 3 6 8
10 11 10 2 0 4 -4 4 -10z m-2991 -264 c9 -10 8 -16 -4 -26 -19 -16 -41 1 -32
24 8 20 21 20 36 2z m-142 -12 c-3 -3 -12 -4 -19 -1 -8 3 -5 6 6 6 11 1 17 -2
13 -5z m4398 -24 c3 -6 -1 -13 -10 -16 -19 -8 -30 0 -20 15 8 14 22 14 30 1z
m-3938 -96 c7 -18 -15 -36 -32 -26 -5 4 -73 9 -150 13 l-140 5 137 2 c78 1
139 6 143 12 10 15 35 12 42 -6z m-754 -98 c8 -19 -15 -37 -32 -26 -17 10 -7
40 13 40 7 0 16 -6 19 -14z m4792 -65 c3 -5 1 -12 -5 -16 -5 -3 -10 1 -10 9 0
18 6 21 15 7z m596 -24 c-6 -8 -7 -18 -3 -22 4 -5 1 -5 -6 -1 -8 5 -19 1 -28
-10 -13 -18 -14 -18 -7 1 7 21 32 44 47 45 5 0 3 -6 -3 -13z m34 -7 c-3 -5
-11 -10 -16 -10 -6 0 -7 5 -4 10 3 6 11 10 16 10 6 0 7 -4 4 -10z m35 -10 c0
-5 -4 -10 -10 -10 -5 0 -10 5 -10 10 0 6 5 10 10 10 6 0 10 -4 10 -10z m25
-10 c3 -5 1 -10 -4 -10 -6 0 -11 5 -11 10 0 6 2 10 4 10 3 0 8 -4 11 -10z
m-5169 -11 c3 -6 -1 -18 -9 -27 -12 -12 -19 -13 -30 -4 -8 7 -64 13 -138 15
l-124 3 127 2 c71 1 130 6 133 12 8 13 32 13 41 -1z m5114 7 c0 -2 -8 -10 -17
-17 -16 -13 -17 -12 -4 4 13 16 21 21 21 13z m1 -39 c-10 -9 -11 -8 -5 6 3 10
9 15 12 12 3 -3 0 -11 -7 -18z m-166 -27 c-10 -11 -22 -20 -27 -20 -5 0 2 11
14 24 28 28 39 25 13 -4z m35 0 c-6 -11 -16 -20 -22 -20 -6 0 -3 9 7 20 10 11
20 20 22 20 2 0 -1 -9 -7 -20z m-5704 -11 c9 -16 -12 -33 -31 -25 -14 5 -15 9
-5 21 15 18 26 19 36 4z m5774 -23 c0 -2 -8 -10 -17 -17 -16 -13 -17 -12 -4 4
13 16 21 21 21 13z m-5460 -115 c0 -21 -26 -36 -35 -21 -4 6 -54 11 -113 12
l-107 2 100 3 c55 2 104 8 109 13 17 17 46 11 46 -9z m5113 -357 c-6 -16 -29
-19 -38 -4 -4 6 -1 17 5 26 15 18 42 0 33 -22z m-5593 -118 c16 -21 9 -56 -15
-72 -41 -27 -88 39 -53 74 16 16 53 15 68 -2z m4648 -159 c3 -12 -3 -17 -22
-17 -25 0 -35 18 -19 34 12 12 38 2 41 -17z m-5447 -350 c-10 -9 -11 -8 -5 6
3 10 9 15 12 12 3 -3 0 -11 -7 -18z m38 -3 c-15 -18 -22 -13 -13 10 3 9 10 13
16 10 5 -3 4 -12 -3 -20z m-114 -3 c-7 -23 21 -37 41 -20 19 16 18 1 -2 -18
-13 -13 -17 -14 -24 -3 -11 18 -38 6 -42 -20 l-3 -21 -18 21 c-17 20 -17 21 0
18 13 -2 21 6 28 30 5 17 13 32 18 32 4 0 6 -8 2 -19z m207 -46 c4 -5 8 -6 8
-2 0 5 12 0 28 -11 58 -42 191 -117 282 -159 173 -81 250 -111 460 -178 38
-12 114 -32 195 -50 44 -10 102 -18 133 -18 17 1 32 -4 32 -11 0 -6 5 -4 11 4
7 11 12 12 15 3 3 -7 12 -9 20 -6 8 3 14 -1 14 -8 0 -11 3 -11 11 1 9 12 12
13 16 1 5 -11 7 -11 15 0 8 11 11 11 15 1 4 -10 8 -10 19 -1 11 9 14 8 14 -7
0 -16 2 -17 11 -4 9 12 12 13 16 1 5 -11 7 -11 15 0 8 11 11 11 15 1 4 -10 8
-10 19 -1 11 9 14 8 14 -7 0 -16 2 -17 11 -4 8 12 12 12 16 2 4 -10 8 -10 19
-1 11 9 14 8 15 -7 0 -11 3 -14 6 -6 7 18 23 15 23 -5 0 -15 2 -14 16 3 15 18
15 18 10 -6 -4 -22 -4 -23 8 -7 18 24 29 21 21 -5 -6 -22 -5 -22 16 2 21 24
21 24 15 3 -9 -27 1 -30 21 -5 13 15 13 15 7 -8 l-7 -25 23 20 c20 17 23 18
17 3 -4 -10 -2 -18 3 -18 6 0 10 5 10 10 0 6 5 10 11 10 6 0 9 -7 5 -15 -7
-20 4 -19 21 3 13 16 14 15 8 -5 -8 -27 2 -30 22 -5 13 15 13 15 7 -8 -5 -20
-4 -23 7 -12 16 15 33 16 23 1 -4 -8 1 -9 17 -5 13 3 18 3 12 0 -7 -3 -13 -13
-13 -22 0 -12 6 -10 27 9 l26 24 -16 -25 c-19 -27 -23 -55 -7 -45 6 3 10 0 10
-9 0 -8 5 -16 12 -18 8 -3 6 -7 -5 -11 -10 -4 -16 -2 -14 5 1 7 -5 12 -13 13
-21 1 -64 16 -70 25 -12 17 -219 74 -305 84 -76 9 -184 23 -355 46 -85 11
-245 32 -355 45 -280 36 -505 83 -505 106 0 6 -5 7 -10 4 -18 -11 -52 6 -45
22 4 12 2 13 -8 5 -8 -7 -18 -8 -23 -3 -5 5 -26 14 -46 21 -46 14 -48 25 -8
48 28 16 77 98 66 110 -3 3 -13 -12 -22 -33 -16 -39 -41 -71 -50 -63 -7 7 7
38 17 38 5 0 9 5 9 10 0 18 -18 11 -25 -10 -8 -24 -15 -25 -41 -4 -18 15 -18
15 0 10 11 -4 26 0 37 10 10 9 22 14 26 11 5 -3 16 8 25 24 10 16 13 29 8 29
-5 0 -14 -9 -20 -21 -7 -11 -14 -18 -17 -15 -3 3 2 17 11 31 9 14 12 25 7 25
-5 0 -16 -16 -25 -35 -9 -19 -21 -37 -27 -40 -10 -7 -79 40 -79 54 0 5 11 25
25 46 27 38 26 64 0 29 -8 -10 -15 -14 -15 -7 0 6 5 15 10 18 6 3 10 12 10 18
0 7 -16 -6 -34 -28 -19 -22 -38 -37 -42 -32 -4 4 -2 7 4 7 7 0 12 5 12 11 0 6
-9 8 -22 3 -22 -6 -22 -6 -3 12 13 13 20 15 23 6 5 -17 22 -15 22 2 0 8 6 16
13 19 6 2 9 8 5 12 -4 4 -14 2 -23 -5 -18 -15 -20 -5 -2 14 10 11 17 10 42 -7
17 -12 33 -26 37 -32z m-146 -10 c-34 -29 -49 -31 -66 -10 -9 10 -9 15 -1 15
6 0 11 -4 11 -10 0 -18 25 -11 50 14 14 13 27 22 30 19 2 -2 -9 -15 -24 -28z
m94 -35 c0 -5 -2 -10 -4 -10 -3 0 -8 5 -11 10 -3 6 -1 10 4 10 6 0 11 -4 11
-10z m-104 -14 c20 -21 17 -28 -6 -14 -11 7 -20 16 -20 20 0 12 10 9 26 -6z
m-36 -16 c0 -5 -2 -10 -4 -10 -3 0 -8 5 -11 10 -3 6 -1 10 4 10 6 0 11 -4 11
-10z m140 -52 c0 -4 -11 2 -25 14 -14 12 -25 25 -25 30 0 4 11 -2 25 -14 14
-12 25 -25 25 -30z m-68 -10 c25 -27 32 -30 49 -20 10 7 19 8 19 3 0 -5 -6
-11 -12 -14 -7 -2 -10 -8 -5 -12 4 -5 13 -3 19 3 15 15 28 16 28 2 0 -5 -7
-10 -15 -10 -8 0 -15 -5 -15 -11 0 -11 -34 12 -82 54 -27 23 -35 37 -22 37 3
0 19 -14 36 -32z m43 -6 c-6 -7 -35 18 -35 31 0 5 9 2 20 -8 11 -10 18 -20 15
-23z m55 -2 c0 -5 -4 -10 -10 -10 -5 0 -10 5 -10 10 0 6 5 10 10 10 6 0 10 -4
10 -10z m20 -49 c0 -11 -31 -24 -39 -16 -3 3 1 10 9 15 19 12 30 12 30 1z m30
-15 c0 -3 -4 -8 -10 -11 -5 -3 -10 -1 -10 4 0 6 5 11 10 11 6 0 10 -2 10 -4z
m-30 -16 c0 -5 -4 -10 -10 -10 -5 0 -10 5 -10 10 0 6 5 10 10 10 6 0 10 -4 10
-10z m4941 -126 c11 -14 10 -18 -6 -30 -24 -18 -34 -18 -41 1 -15 38 21 60 47
29z m-386 -154 c4 -6 73 -11 168 -12 l162 -2 -155 -3 c-124 -3 -157 -7 -172
-19 -21 -20 -48 -12 -48 14 0 30 31 45 45 22z m-2732 -57 c-7 -2 -13 -9 -13
-14 0 -11 27 -12 33 -1 2 4 2 2 1 -5 -2 -6 2 -13 8 -15 7 -3 8 -9 2 -19 -8
-13 -13 -13 -34 -2 -14 7 -19 13 -10 13 12 1 12 3 -2 14 -13 10 -15 15 -6 24
7 7 17 12 23 11 5 0 4 -3 -2 -6z m3614 -34 c9 -9 8 -15 -2 -25 -17 -18 -30
-18 -45 1 -23 28 21 50 47 24z m-3564 -44 c-3 -9 -8 -14 -10 -11 -3 3 -2 9 2
15 9 16 15 13 8 -4z m3177 -110 c10 -12 41 -15 144 -17 l131 -2 -130 -3 c-71
-2 -134 -8 -139 -13 -27 -27 -69 7 -45 36 15 18 24 18 39 -1z m-4134 -195 c0
-11 -3 -20 -7 -20 -4 0 -9 9 -12 20 -3 12 0 20 7 20 6 0 12 -9 12 -20z m1164
-255 c0 -18 -5 -25 -20 -25 -35 0 -24 45 13 49 4 1 7 -10 7 -24z m-680 -14 c0
-6 -4 -13 -10 -16 -5 -3 -10 1 -10 9 0 9 5 16 10 16 6 0 10 -4 10 -9z m2266
-342 c10 -17 -23 -46 -37 -32 -7 7 -9 19 -6 27 7 18 33 21 43 5z"/>
<path d="M5147 3704 c-10 -13 -14 -24 -10 -24 9 0 36 40 31 45 -2 2 -11 -8
-21 -21z"/>
<path d="M5170 3694 c0 -5 5 -15 12 -22 6 -6 8 -15 4 -19 -4 -4 -11 -1 -16 7
-5 8 -12 11 -17 7 -4 -5 -1 -12 7 -17 11 -7 11 -11 1 -24 -10 -12 -11 -16 -1
-16 7 0 10 -7 6 -17 -5 -13 0 -11 19 7 17 16 21 26 14 31 -6 4 -8 12 -5 18 4
6 0 21 -8 33 -9 12 -16 18 -16 12z m20 -74 c0 -5 -4 -10 -10 -10 -5 0 -10 5
-10 10 0 6 5 10 10 10 6 0 10 -4 10 -10z"/>
<path d="M5110 3670 c0 -5 5 -10 11 -10 5 0 7 5 4 10 -3 6 -8 10 -11 10 -2 0
-4 -4 -4 -10z"/>
<path d="M5280 3609 c0 -5 5 -7 10 -4 6 3 10 8 10 11 0 2 -4 4 -10 4 -5 0 -10
-5 -10 -11z"/>
<path d="M6570 3249 c0 -5 5 -7 10 -4 6 3 10 8 10 11 0 2 -4 4 -10 4 -5 0 -10
-5 -10 -11z"/>
<path d="M6600 3239 c0 -5 5 -7 10 -4 6 3 10 8 10 11 0 2 -4 4 -10 4 -5 0 -10
-5 -10 -11z"/>
<path d="M6651 3222 c-17 -31 -13 -40 5 -14 9 13 14 26 11 29 -3 2 -10 -4 -16
-15z"/>
<path d="M6677 3218 c-7 -24 19 -62 35 -51 6 3 14 -1 19 -8 7 -11 9 -11 9 -1
0 7 5 10 10 7 6 -4 7 -11 4 -17 -4 -6 2 -6 15 1 11 7 22 17 22 24 5 45 4 65
-4 60 -4 -3 -6 -11 -3 -19 7 -17 -3 -44 -15 -44 -5 0 -7 12 -4 28 5 23 4 24
-4 6 -10 -24 -31 -41 -31 -26 0 5 3 12 7 16 11 10 12 37 2 30 -5 -3 -9 -11 -9
-18 0 -8 -7 -19 -15 -26 -9 -8 -15 -9 -15 -2 0 6 5 14 10 17 6 3 10 14 9 23 0
13 -3 12 -11 -5 -15 -31 -30 -29 -22 2 3 14 4 25 1 25 -2 0 -7 -10 -10 -22z"/>
<path d="M367 1882 c-10 -10 -17 -23 -17 -29 0 -6 -6 -13 -12 -15 -15 -5 13
-38 31 -38 6 0 11 -4 11 -10 0 -23 16 -7 36 35 11 25 19 45 18 45 -2 0 -13
-10 -25 -22 -16 -17 -20 -19 -16 -6 3 10 2 20 -3 23 -5 3 -7 12 -3 20 7 20 0
19 -20 -3z m3 -52 c0 -5 8 -10 17 -10 9 0 14 -3 10 -6 -8 -8 -47 5 -47 17 0 5
5 9 10 9 6 0 10 -4 10 -10z"/>
<path d="M395 1880 c-3 -5 -1 -10 4 -10 6 0 11 5 11 10 0 6 -2 10 -4 10 -3 0
-8 -4 -11 -10z"/>
<path d="M496 1773 c-6 -14 -5 -15 5 -6 7 7 10 15 7 18 -3 3 -9 -2 -12 -12z"/>
<path d="M517 1765 c-4 -8 -2 -17 3 -20 6 -4 10 -4 10 -1 0 2 3 11 6 20 3 9 2
16 -4 16 -5 0 -12 -7 -15 -15z"/>
<path d="M544 1746 c-7 -30 -16 -33 -34 -11 -14 17 -25 12 -41 -18 -12 -22
-12 -22 10 -3 16 15 24 17 33 8 7 -7 16 -12 20 -12 10 0 31 51 24 58 -3 2 -8
-7 -12 -22z"/>
<path d="M575 1749 c-4 -6 -5 -12 -2 -15 2 -3 7 2 10 11 7 17 1 20 -8 4z"/>
<path d="M596 1728 c-9 -12 -16 -30 -16 -40 0 -9 -4 -20 -10 -23 -5 -3 -10
-10 -10 -16 0 -5 8 -1 18 9 10 9 17 23 14 30 -2 6 3 23 12 37 20 31 13 33 -8
3z"/>
<path d="M615 1709 c-10 -30 -2 -32 12 -3 6 13 7 24 3 24 -5 0 -12 -9 -15 -21z"/>
<path d="M477 1690 c-9 -11 -17 -22 -17 -25 0 -9 40 19 44 32 8 20 -7 15 -27
-7z"/>
<path d="M511 1677 c-13 -21 -12 -21 5 -5 10 10 16 20 13 22 -3 3 -11 -5 -18
-17z"/>
<path d="M699 1683 c-13 -16 -12 -17 4 -4 9 7 17 15 17 17 0 8 -8 3 -21 -13z"/>
<path d="M541 1673 c-7 -8 -11 -16 -8 -19 2 -2 10 2 17 11 17 20 9 27 -9 8z"/>
<path d="M5570 4888 c0 -21 47 -189 70 -250 24 -65 45 -79 62 -42 10 21 9 39
-6 93 -9 36 -19 73 -21 81 -2 8 -8 28 -14 43 -6 16 -11 42 -11 58 0 27 -2 29
-40 29 -25 0 -40 -5 -40 -12z"/>
<path d="M5511 4694 c0 -11 3 -14 6 -6 3 7 2 16 -1 19 -3 4 -6 -2 -5 -13z"/>
<path d="M7103 3843 c15 -2 37 -2 50 0 12 2 0 4 -28 4 -27 0 -38 -2 -22 -4z"/>
<path d="M7268 3843 c7 -3 16 -2 19 1 4 3 -2 6 -13 5 -11 0 -14 -3 -6 -6z"/>
<path d="M7193 3762 c-37 -2 -70 -7 -74 -13 -3 -5 -37 -10 -75 -10 -38 -1 -75
-4 -84 -9 -8 -4 -31 -11 -50 -14 -90 -15 -105 -19 -111 -28 -4 -6 -24 -11 -46
-11 -30 -2 -39 -6 -35 -16 4 -10 -1 -12 -19 -8 -35 8 -117 35 -171 57 -27 10
-48 14 -48 9 0 -5 5 -9 10 -9 17 0 11 -28 -7 -32 -23 -4 71 -78 99 -78 11 0
17 -4 14 -9 -11 -17 72 -21 412 -21 l342 0 0 100 0 100 -45 -2 c-24 -2 -75 -4
-112 -6z m18 -97 c-1 -15 -24 -12 -29 3 -3 9 2 13 12 10 10 -1 17 -7 17 -13z"/>
<path d="M5990 3693 c0 -5 8 -16 18 -24 9 -9 25 -25 34 -35 36 -41 52 -48 130
-52 69 -4 78 -3 72 12 -3 9 -12 16 -20 16 -8 0 -14 5 -14 11 0 6 -8 8 -17 5
-20 -6 -60 20 -49 31 4 5 14 -1 22 -11 7 -11 16 -17 20 -14 3 3 -2 15 -12 26
l-17 21 -30 -21 c-24 -17 -31 -18 -38 -7 -7 11 -9 10 -9 -5 0 -20 0 -20 -15 0
-19 25 -19 35 0 28 8 -4 15 -1 15 5 0 18 -29 25 -45 11 -12 -10 -18 -10 -30 0
-8 7 -15 8 -15 3z"/>
<path d="M6264 3606 c27 -26 63 -39 72 -25 3 5 -4 9 -15 9 -12 0 -21 4 -21 8
0 8 -43 32 -55 32 -2 0 7 -11 19 -24z"/>
<path d="M6320 3550 c0 -12 75 -81 108 -99 21 -11 115 -14 474 -16 l448 -3 0
64 0 64 -347 0 c-331 0 -347 -1 -328 -18 11 -9 18 -16 16 -14 -2 1 -15 -5 -28
-13 -13 -9 -23 -11 -23 -5 0 7 -6 8 -17 2 -29 -15 -125 -13 -149 3 -52 34
-154 57 -154 35z"/>
<path d="M6620 3540 c0 -5 7 -10 16 -10 8 0 12 5 9 10 -3 6 -10 10 -16 10 -5
0 -9 -4 -9 -10z"/>
<path d="M780 1136 c0 -2 7 -7 16 -10 8 -3 12 -2 9 4 -6 10 -25 14 -25 6z"/>
<path d="M8 1113 c7 -3 16 -2 19 1 4 3 -2 6 -13 5 -11 0 -14 -3 -6 -6z"/>
<path d="M855 1110 c-4 -6 7 -10 25 -10 18 0 29 4 25 10 -3 6 -15 10 -25 10
-10 0 -22 -4 -25 -10z"/>
<path d="M975 1110 c11 -5 27 -9 35 -9 9 0 8 4 -5 9 -11 5 -27 9 -35 9 -9 0
-8 -4 5 -9z"/>
<path d="M960 1087 c14 -6 28 -15 31 -20 4 -5 13 -7 20 -4 9 3 -1 11 -23 21
-42 18 -67 21 -28 3z"/>
<path d="M1046 1081 c-16 -6 -11 -10 26 -19 26 -7 55 -12 65 -12 15 0 14 2 -4
15 -14 10 -32 13 -50 9 -22 -4 -25 -3 -13 5 17 12 4 13 -24 2z"/>
<path d="M1075 1030 c3 -5 10 -10 16 -10 5 0 9 5 9 10 0 6 -7 10 -16 10 -8 0
-12 -4 -9 -10z"/>
<path d="M1680 880 c0 -5 5 -10 10 -10 6 0 10 5 10 10 0 6 -4 10 -10 10 -5 0
-10 -4 -10 -10z"/>
<path d="M1577 290 c3 -11 14 -20 25 -20 10 0 16 5 13 10 -4 6 -11 7 -17 4 -7
-5 -9 -1 -5 9 4 11 1 17 -7 17 -9 0 -12 -7 -9 -20z"/>
</g>
</svg>
